#!OML:ASF E:\Steps\Project 1\Capture day 1\Session 2\Subject.ASF
:FULLY-SPECIFIED
:DEGREES
852
root 8.7068 22.6735 -18.6818 -154.997 6.09972 179.679
lowerback -19.7714 -1.01919 -5.00839
upperback 2.27722 -0.115653 0.208705
thorax 13.7834 -0.437295 3.06389
lowerneck 2.94898 -2.46078 -1.43579
upperneck 10.7712 -3.17367 6.77432
head 3.11685 -1.14592 2.43574
rclavicle 1.02374e-014 3.97569e-015
rhumerus -39.5939 -13.0538 -78.4619
rradius 45.2169
rwrist -6.38822
rhand -6.48329 -51.5053
rfingers 7.12502
rthumb 19.3677 -80.5608
lclavicle 1.02374e-014 3.97569e-015
lhumerus -30.6303 -0.0636951 79.763
lradius 30.8069
lwrist 0.879388
lhand -21.0588 -13.9902
lfingers 7.12502
lthumb 5.31758 15.9231
rfemur -46.8949 9.41452 15.5691
rtibia 42.6712
rfoot -21.6322 -9.534
rtoes -43.953
lfemur -36.1689 -8.27336 -19.5367
ltibia 18.2997
lfoot -6.47003 5.50976
ltoes -21.946
853
root 8.71158 22.6794 -18.7248 -155.119 5.95802 179.793
lowerback -19.5318 -1.12556 -4.95839
upperback 2.11108 -0.301711 0.330125
thorax 13.4652 -0.512417 3.1143
lowerneck 3.17117 -2.42851 -1.53851
upperneck 10.7508 -3.11846 6.72532
head 3.06745 -1.12616 2.43939
rclavicle -1.17283e-014 5.96354e-016
rhumerus -40.0945 -12.7619 -78.3233
rradius 45.1794
rwrist -6.35585
rhand -6.72639 -50.9072
rfingers 7.12502
rthumb 19.134 -79.986
lclavicle -1.17283e-014 5.96354e-016
lhumerus -31.0169 0.109533 79.7884
lradius 30.7294
lwrist 0.805586
lhand -21.0051 -13.9905
lfingers 7.12502
lthumb 5.36938 15.9215
rfemur -46.3283 9.97201 15.4463
rtibia 40.3768
rfoot -21.8076 -9.34433
rtoes -44.5111
lfemur -35.8722 -8.34767 -19.3589
ltibia 18.2812
lfoot -6.62445 5.49886
ltoes -21.5825
854
root 8.70673 22.683 -18.7756 -155.212 5.77786 179.803
lowerback -19.4559 -1.10968 -4.69408
upperback 1.95727 -0.342503 0.296426
thorax 13.2409 -0.498947 2.91297
lowerneck 3.40985 -2.34659 -1.87144
upperneck 11.2214 -2.99655 7.09012
head 3.19856 -1.03656 2.63665
rclavicle -1.28216e-014 -6.36111e-015
rhumerus -40.693 -12.9575 -78.1398
rradius 45.1086
rwrist -6.11417
rhand -6.80409 -50.5508
rfingers 7.12502
rthumb 19.0592 -79.6369
lclavicle -1.28216e-014 -6.36111e-015
lhumerus -31.2883 -0.0912533 79.8496
lradius 30.5886
lwrist 0.675127
lhand -20.9959 -13.9754
lfingers 7.12502
lthumb 5.37835 15.9364
rfemur -45.5855 10.4013 15.1999
rtibia 37.8967
rfoot -21.8382 -8.7899
rtoes -44.7818
lfemur -35.5943 -8.3945 -19.45
ltibia 18.3582
lfoot -6.81344 5.32466
ltoes -22.3351
855
root 8.71036 22.6858 -18.833 -155.333 5.60208 179.759
lowerback -19.8749 -1.16253 -4.69236
upperback 2.11423 -0.395276 0.334107
thorax 13.6755 -0.539826 2.93849
lowerneck 3.35006 -2.47929 -1.78527
upperneck 10.8848 -3.18406 6.90143
head 3.09557 -1.1541 2.54666
rclavicle -1.35174e-014 -1.70955e-014
rhumerus -40.5302 -13.3366 -77.9646
rradius 44.6354
rwrist -5.73185
rhand -6.64915 -50.7479
rfingers 7.12502
rthumb 19.2082 -79.8194
lclavicle -1.35174e-014 -1.70955e-014
lhumerus -31.065 -0.147561 79.9637
lradius 30.335
lwrist 0.505132
lhand -20.9048 -14.0858
lfingers 7.12502
lthumb 5.46631 15.8237
rfemur -44.7962 10.8661 14.8966
rtibia 35.5488
rfoot -22.1322 -8.1103
rtoes -44.5
lfemur -35.2498 -8.49857 -19.5718
ltibia 18.4216
lfoot -6.99663 5.20901
ltoes -23.0445
856
root 8.71468 22.6869 -18.8849 -155.498 5.34919 179.747
lowerback -20.0926 -1.19463 -4.66274
upperback 2.22121 -0.439462 0.372711
thorax 13.9334 -0.569237 2.95131
lowerneck 3.27682 -2.72948 -1.66616
upperneck 10.7367 -3.52179 6.71561
head 3.06682 -1.33358 2.45251
rclavicle 0 7.35503e-015
rhumerus -40.3409 -13.6994 -77.8085
rradius 44.065
rwrist -5.51492
rhand -6.45244 -51.5042
rfingers 7.12502
rthumb 19.3974 -80.5567
lclavicle 0 7.35503e-015
lhumerus -30.915 -0.500389 80.1053
lradius 30.0515
lwrist 0.436778
lhand -20.8376 -14.2464
lfingers 7.12502
lthumb 5.53115 15.6614
rfemur -44.088 11.196 14.7502
rtibia 33.553
rfoot -21.9416 -7.67653
rtoes -45.2341
lfemur -34.9149 -8.59465 -19.6258
ltibia 18.5209
lfoot -7.20724 5.01891
ltoes -23.5517
857
root 8.71817 22.6898 -18.9349 -155.624 5.00415 179.64
lowerback -20.2472 -1.26073 -4.68407
upperback 2.26893 -0.512984 0.371448
thorax 14.0881 -0.609124 2.93857
lowerneck 3.08942 -2.68979 -1.67728
upperneck 10.5456 -3.48837 6.7772
head 3.03579 -1.32539 2.47244
rclavicle -9.34288e-015 1.59028e-015
rhumerus -40.4584 -13.9642 -77.7276
rradius 44.0414
rwrist -5.47053
rhand -6.26943 -52.3814
rfingers 7.12502
rthumb 19.5733 -81.4161
lclavicle -9.34288e-015 1.59028e-015
lhumerus -30.8712 -0.763069 80.2017
lradius 29.9797
lwrist 0.140643
lhand -20.6722 -14.0567
lfingers 7.12502
lthumb 5.69086 15.8469
rfemur -43.378 11.3738 14.5593
rtibia 31.6517
rfoot -21.285 -7.12493
rtoes -44.488
lfemur -34.6927 -8.64068 -19.8179
ltibia 18.7272
lfoot -7.45866 4.61603
ltoes -24.1547
858
root 8.72569 22.6906 -18.9852 -155.771 4.58584 179.707
lowerback -20.4063 -1.37019 -4.57869
upperback 2.35154 -0.691828 0.465973
thorax 14.2954 -0.695016 2.9276
lowerneck 2.86988 -2.4884 -1.86114
upperneck 10.4018 -3.24139 6.85528
head 3.02082 -1.21596 2.53407
rclavicle -1.14301e-015 1.47101e-014
rhumerus -40.3875 -13.947 -77.7221
rradius 43.7404
rwrist -5.5617
rhand -6.12182 -52.7667
rfingers 7.12502
rthumb 19.7152 -81.7869
lclavicle -1.14301e-015 1.47101e-014
lhumerus -30.7293 -0.666348 80.2511
lradius 29.8581
lwrist -0.224471
lhand -20.4914 -13.6916
lfingers 7.12502
lthumb 5.86544 16.2072
rfemur -42.5719 11.6298 14.597
rtibia 29.9297
rfoot -21.4176 -6.77126
rtoes -44.0762
lfemur -34.4558 -8.70245 -19.7505
ltibia 18.9423
lfoot -7.68736 4.26904
ltoes -23.1248
859
root 8.73585 22.6874 -19.0345 -155.908 4.26465 179.701
lowerback -20.4598 -1.4689 -4.56596
upperback 2.29064 -0.829049 0.511016
thorax 14.268 -0.756129 2.9273
lowerneck 3.0459 -2.48133 -2.0614
upperneck 11.004 -3.21539 7.16183
head 3.20925 -1.16414 2.68734
rclavicle -1.0138e-014 -5.76476e-015
rhumerus -40.6206 -13.8948 -77.6764
rradius 43.5106
rwrist -5.70202
rhand -5.89417 -53.2483
rfingers 7.12502
rthumb 19.9341 -82.2459
lclavicle -1.0138e-014 -5.76476e-015
lhumerus -30.8155 -0.664697 80.2583
lradius 29.7093
lwrist -0.418464
lhand -20.4831 -13.7236
lfingers 7.12502
lthumb 5.87343 16.175
rfemur -41.8847 11.8396 14.5915
rtibia 28.6209
rfoot -21.1334 -6.58139
rtoes -44.0167
lfemur -34.2371 -8.77968 -19.7445
ltibia 19.1532
lfoot -7.95769 4.02435
ltoes -21.4844
860
root 8.74395 22.6785 -19.0909 -156.026 3.94136 179.573
lowerback -20.5966 -1.53285 -4.5866
upperback 2.16599 -0.890176 0.461653
thorax 14.2064 -0.776113 2.86344
lowerneck 3.19855 -2.5261 -1.9895
upperneck 11.0853 -3.25886 7.15564
head 3.20969 -1.17585 2.67324
rclavicle -1.48592e-014 5.1684e-015
rhumerus -40.9979 -14.1044 -77.562
rradius 43.2292
rwrist -5.72358
rhand -5.74225 -53.8289
rfingers 7.12502
rthumb 20.0801 -82.8112
lclavicle -1.48592e-014 5.1684e-015
lhumerus -31.0557 -0.822681 80.2223
lradius 29.6705
lwrist -0.499802
lhand -20.5798 -14.1239
lfingers 7.12502
lthumb 5.78003 15.7772
rfemur -41.1353 11.8553 14.5601
rtibia 27.4253
rfoot -21.1137 -6.6113
rtoes -44.1878
lfemur -34.0347 -8.87091 -19.937
ltibia 19.4157
lfoot -8.24516 3.70152
ltoes -21.1349
861
root 8.75161 22.667 -19.148 -156.079 3.57942 179.526
lowerback -20.8784 -1.5939 -4.51586
upperback 2.07817 -0.97123 0.468591
thorax 14.2742 -0.804747 2.80377
lowerneck 3.32452 -2.60977 -1.99618
upperneck 11.1001 -3.36005 7.10705
head 3.19603 -1.22648 2.65665
rclavicle -3.97569e-016 4.37326e-015
rhumerus -41.23 -14.4142 -77.3635
rradius 42.8301
rwrist -5.56468
rhand -5.86795 -53.7176
rfingers 7.12502
rthumb 19.9593 -82.7126
lclavicle -3.97569e-016 4.37326e-015
lhumerus -31.1658 -0.937161 80.2466
lradius 29.5438
lwrist -0.523735
lhand -20.6701 -14.4677
lfingers 7.12502
lthumb 5.69285 15.4359
rfemur -40.3893 11.8025 14.6816
rtibia 26.3113
rfoot -20.6551 -6.53292
rtoes -43.558
lfemur -33.9602 -8.90964 -20.0365
ltibia 19.7848
lfoot -8.52818 3.31559
ltoes -21.7215
862
root 8.76337 22.6578 -19.2006 -156.136 3.22877 179.497
lowerback -21.3266 -1.71367 -4.53024
upperback 2.11985 -1.11033 0.53132
thorax 14.6022 -0.879202 2.83438
lowerneck 3.05583 -2.7065 -2.03819
upperneck 11.2532 -3.49957 7.06532
head 3.30645 -1.29207 2.64819
rclavicle -1.91827e-014 4.57205e-015
rhumerus -41.1597 -14.7606 -77.167
rradius 42.2714
rwrist -5.25478
rhand -5.90404 -53.0305
rfingers 7.12502
rthumb 19.9246 -82.0291
lclavicle -1.91827e-014 4.57205e-015
lhumerus -31.0453 -0.783274 80.2649
lradius 29.3535
lwrist -0.640398
lhand -20.6449 -14.6405
lfingers 7.12502
lthumb 5.71722 15.2624
rfemur -39.6638 11.8098 14.8093
rtibia 25.3864
rfoot -20.1799 -6.56091
rtoes -42.3646
lfemur -33.9146 -8.90012 -20.0736
ltibia 20.1928
lfoot -8.87981 2.90805
ltoes -21.8453
863
root 8.76779 22.6494 -19.2528 -156.258 2.8727 179.178
lowerback -21.4544 -1.86787 -4.69712
upperback 2.01077 -1.2499 0.471442
thorax 14.5638 -0.946031 2.81452
lowerneck 3.18851 -2.71257 -2.04001
upperneck 11.1793 -3.49917 7.01475
head 3.25467 -1.29711 2.63064
rclavicle -6.85807e-015 -4.57205e-015
rhumerus -41.4439 -15.1035 -76.9355
rradius 41.7862
rwrist -5.05737
rhand -5.75707 -52.6541
rfingers 7.12502
rthumb 20.0659 -81.638
lclavicle -6.85807e-015 -4.57205e-015
lhumerus -31.3447 -0.453163 80.1807
lradius 29.4236
lwrist -0.943831
lhand -20.3717 -14.2143
lfingers 7.12502
lthumb 5.98092 15.6813
rfemur -38.8655 11.4592 14.724
rtibia 24.6936
rfoot -19.8341 -6.65799
rtoes -40.4174
lfemur -33.6909 -9.12783 -20.4952
ltibia 20.4431
lfoot -9.18905 2.53702
ltoes -21.364
